<svg xmlns="http://www.w3.org/2000/svg" viewBox="0 0 200 200">
  <defs>
    <linearGradient id="gold" x1="0" y1="0" x2="1" y2="1">
      <stop offset="0%" stop-color="#f0d78c"/>
      <stop offset="40%" stop-color="#e8c97a"/>
      <stop offset="100%" stop-color="#b8922e"/>
    </linearGradient>
    <clipPath id="c">
      <circle cx="100" cy="100" r="96"/>
    </clipPath>
  </defs>

  <g clip-path="url(#c)">
    <!-- 金色背景 -->
    <circle cx="100" cy="100" r="96" fill="url(#gold)"/>

    <!-- 真人側臉剪影（全用貝茲曲線，平滑自然） -->
    <!-- 面朝右方（迎向光明） -->
    <path d="
      M4 196 L4 4 L55 4
      C60 4, 65 6, 70 12
      C76 20, 80 32, 82 42
      C84 50, 85 56, 85 60
      C85 64, 84 67, 82 70
      C80 73, 79 75, 80 78
      C81 80, 84 81, 88 82
      C92 83, 97 82, 102 78
      C106 74, 109 68, 112 62
      C114 58, 115 56, 114 58
      C112 62, 108 68, 104 74
      C100 80, 98 84, 100 88
      C102 90, 104 91, 104 92
      C104 94, 102 96, 98 97
      C94 98, 92 98, 92 100
      C92 102, 94 105, 96 108
      C98 111, 98 114, 94 118
      C90 122, 84 128, 78 136
      C72 144, 66 156, 62 168
      C58 180, 50 192, 40 196
      Z
    " fill="#0a0e1a"/>
  </g>

  <circle cx="100" cy="100" r="96" stroke="#c9a84c" stroke-width="1.5" fill="none" opacity="0.4"/>
</svg>
