<svg xmlns="http://www.w3.org/2000/svg" viewBox="0 0 200 200">
  <defs>
    <linearGradient id="g" x1="0.3" y1="0" x2="1" y2="0.8">
      <stop offset="0%" stop-color="#f0d78c"/>
      <stop offset="50%" stop-color="#e8c97a"/>
      <stop offset="100%" stop-color="#b8922e"/>
    </linearGradient>
    <clipPath id="c"><circle cx="100" cy="100" r="96"/></clipPath>
  </defs>
  <g clip-path="url(#c)">
    <!-- йҮ‘иүІе…үиҠ’иғҢжҷҜ -->
    <circle cx="100" cy="100" r="96" fill="url(#g)"/>

    <!-- дәәиҮүеҒҙйқўеүӘеҪұпјҡең“еҪўй ӯйЎұ + зӘҒеҮәзҡ„дә”е®ҳ -->
    <!-- йқўжңқеҸіж–№пјҲиҝҺеҗ‘е…үжҳҺпјү -->

    <!-- й ӯйЎұпјҲең“еҪўпјҢдҪ”е·ҰеҚҠйӮҠпјү -->
    <circle cx="62" cy="72" r="52" fill="#0a0e1a"/>

    <!-- иҮүйғЁдә”е®ҳијӘе»“пјҲзӘҒеҮәеҲ°еҸійӮҠйҮ‘иүІеҚҖеҹҹпјү -->
    <!-- йЎҚй ӯвҶ’зңүеј“вҶ’йј»жЁ‘вҶ’йј»е°–вҶ’дәәдёӯвҶ’еҳҙе”ҮвҶ’дёӢе·ҙ -->
    <path d="
      M 100,28
      C 104,34 106,40 108,46
      C 110,50 112,52 112,56
      C 112,60 110,62 108,64
      C 106,66 106,68 108,70
      C 112,72 118,74 124,74
      C 128,74 130,72 130,70
      C 130,68 128,66 124,66
      C 120,66 118,68 116,72
      C 114,76 112,80 114,84
      C 116,88 118,90 118,92
      C 118,94 116,96 112,98
      C 108,100 106,102 108,106
      C 110,110 114,114 114,118
      C 114,124 110,130 104,136
      C 98,142 90,150 84,160
      C 78,170 70,180 60,190
      C 52,196 40,196 30,196
      L 10,196 L 10,124
      C 10,124 10,100 18,82
    " fill="#0a0e1a"/>

    <!-- и„–еӯҗ -->
    <path d="
      M 60,190 C 52,196 40,196 30,196 L 10,196 L 10,124
      C 14,128 20,130 30,132
      C 40,134 50,140 58,150
      C 66,160 68,172 64,184
      C 62,188 60,190 60,190
    " fill="#0a0e1a"/>
  </g>
  <circle cx="100" cy="100" r="96" stroke="#c9a84c" stroke-width="1.5" fill="none" opacity="0.4"/>
</svg>
