<svg xmlns="http://www.w3.org/2000/svg" viewBox="0 0 200 200">
  <defs>
    <linearGradient id="g" x1="0" y1="0" x2="1" y2="1">
      <stop offset="0%" stop-color="#f0d78c"/>
      <stop offset="50%" stop-color="#e8c97a"/>
      <stop offset="100%" stop-color="#b8922e"/>
    </linearGradient>
    <clipPath id="c"><circle cx="100" cy="100" r="96"/></clipPath>
  </defs>
  <g clip-path="url(#c)">
    <circle cx="100" cy="100" r="96" fill="url(#g)"/>
    <!-- 人臉側面（面朝右）：簡化到最少的曲線，每個特徵都誇大 -->
    <path d="
      M 0,0 L 0,200 L 50,200
      Q 55,185 60,170
      Q 65,155 68,145
      Q 72,135 68,125
      Q 62,118 65,112
      Q 70,108 75,105
      L 72,100
      Q 65,95 62,88
      Q 58,78 62,68
      Q 68,58 78,50
      Q 88,42 95,32
      Q 100,22 95,14
      Q 88,6 78,4
      L 60,0 Z
    " fill="#0a0e1a"/>
  </g>
  <circle cx="100" cy="100" r="96" stroke="#c9a84c" stroke-width="1.5" fill="none" opacity="0.4"/>
</svg>
